<svg width="136" height="70" viewBox="0 0 136 70" fill="none" xmlns="http://www.w3.org/2000/svg">
<path d="M37.6026 60.3133L38.0077 5.67453C38.0194 4.08991 39.7816 3.14769 41.1059 4.0179L83.032 31.5669C84.243 32.3626 84.2323 34.1419 83.0118 34.9229L40.6806 62.0128C39.3437 62.8683 37.5908 61.9005 37.6026 60.3133Z" fill="#1D2452"/>
<path d="M0.1875 44.9766V25.5234H14.6406V29.9766H4.64062V33.0234H14.6406V37.4766H4.64062V44.9766H0.1875ZM15.8125 44.9766V25.5234H20.2656V44.9766H15.8125ZM23.4688 44.9766L22.4141 44L21.4375 42.9453V27.5938L22.4141 26.5781L23.4688 25.5234H35.8906V29.9766H26.0469L25.9688 30.0547L25.8906 30.1328V40.4062L25.9688 40.4453L26.0078 40.5234H31.2812L31.3594 40.4453L31.4375 40.3672V37.6719L31.3203 37.5938L31.2422 37.4766H27.1406V33.0234H33.8203L34.875 34.0391L35.8906 35.0938V42.9453L34.8359 44L33.8203 44.9766H23.4688ZM37.0625 44.9766V25.5234H41.5156V33.0234H47.0625V25.5234H51.5156V44.9766H47.0625V37.4766H41.5156V44.9766H37.0625ZM57.6875 44.9766V29.9766H52.6875V25.5234H67.1406V29.9766H62.1406V44.9766H57.6875Z" fill="white"/>
<path d="M83.1562 33.0234L83.2344 32.9453L83.3125 32.8672V30.1719L83.1953 30.0938L83.1172 29.9766H77.7656V33.0234H83.1562ZM73.3125 44.9766V25.5234H85.6953L86.75 26.5391L87.7656 27.5938V35.4453L86.7109 36.5L85.6953 37.4766H77.7656V44.9766H73.3125ZM88.9375 44.9766V25.5234H93.3906V40.5234H103.391V44.9766H88.9375ZM114.562 33.0234V30.1719L114.445 30.0938L114.367 29.9766H109.172L109.094 30.0547L109.016 30.1328V33.0234H114.562ZM104.562 44.9766V27.5938L105.539 26.5781L106.594 25.5234H116.945L118 26.5391L119.016 27.5938V44.9766H114.562V37.4766H109.016V44.9766H104.562ZM130.227 36.7344V44.9766H125.773V36.7344L120.188 25.5234H125.148L128 31.1875L130.852 25.5234H135.812L130.227 36.7344Z" fill="#E51C44"/>
</svg>
